<?xml version="1.0" encoding="UTF-8"?>
<svg id="Layer_1" data-name="Layer 1" xmlns="http://www.w3.org/2000/svg" viewBox="0 0 245.78 77.37">
  <path d="M41.15,8.22c.58,.18,1.14,.38,1.72,.54,4.23,1.16,8.46,5.56,8.6,11.58,.08,3.62-.79,6.99-1.96,10.34-2.81,8.11-5.42,16.29-8.44,24.31-2.67,7.05-6.56,13.47-11.18,19.44-.89,1.14-2.28,2-3.6,2.66-1.07,.52-2.35,.33-3.24-.7-.87-1-.87-2.18-.39-3.33,1.38-3.29,2.83-6.56,4.23-9.85,1.22-2.88,2.62-5.72,3.59-8.69,1.29-3.96-2.15-7.57-6.24-6.78-1.5,.29-2.49,1.25-3.24,2.46-2.49,4-4.93,8.03-7.41,12.03-2.37,3.81-4.41,7.83-7.8,10.93-1.37,1.26-2.52,1.47-4.03,.65-1.6-.87-2.17-2.14-1.47-3.82,1.72-4.09,3.56-8.14,5.31-12.22,2.96-6.88,4.67-14.14,6.53-21.36,1.74-6.71,3.43-13.42,5.2-20.13,.92-3.49,3.35-5.51,6.83-6.06,4.82-.77,9.68-1.32,14.53-1.97,.3-.04,.59-.11,.88-.18l1.57,.13h-.01Zm-6.61,19.83c0-1.77,.09-3.3,0-4.81-.07-.88-.33-1.81-.69-2.63-.57-1.3-1.69-1.57-2.91-.83-.41,.25-.78,.56-1.11,.92-3.4,3.64-4.99,8.15-5.9,12.9-.36,1.89,.9,3.37,2.82,3.79,2.9,.63,6.1-1.29,6.8-4.18,.43-1.78,.7-3.59,1-5.17h0Z"/>
  <path d="M91.85,34.8c.5,.55,1,1.05,1.45,1.59,1.77,2.14,2.5,4.72,1.97,7.33-.77,3.78-1.66,7.62-3.11,11.17-2.7,6.6-7.79,10.02-15.07,10.48-5.55,.35-11.06,1.3-16.59,1.98-.13,.01-.26,.05-.39,.06-3.01,.37-3.71-.45-3.07-3.39,1.91-8.66,4.13-17.27,5.55-26.01,1.25-7.7,1.59-15.53,2.32-23.31,.13-1.31,.21-2.64,.33-3.96,.18-1.88,1.18-3.25,2.99-3.63,6.87-1.42,13.73-3.02,20.69-3.96,5.98-.81,10.84,3.53,11.29,9.57,.61,8.2-1.26,15.62-7.69,21.35-.22,.2-.42,.44-.68,.71h0Zm-9.17,11.5c.19-3.12-1.59-5.5-4.38-5.81-3-.34-6.39,1.82-7.19,4.76-.9,3.32-1.68,6.68-2.43,10.03-.4,1.8,.43,2.65,2.32,2.57,5.63-.23,11.32-5.84,11.68-11.54h0Zm-6.3-23.77h.02c-.13,2.07-.21,4.14-.39,6.21-.11,1.29,.13,2.37,1.27,3.12,1.21,.77,2.38,.45,3.52-.16,1.94-1.06,3.13-2.78,3.67-4.83,.56-2.08,.93-4.23,1.18-6.37,.33-2.8-1.54-5.45-4.24-6.3-2.18-.69-4.33,.52-4.66,2.79-.26,1.83-.26,3.69-.37,5.54h0Z"/>
  <path d="M142.82,9.51c1.18,3,1.7,6.06,1.43,9.32-.62,7.29-.72,14.63-2.1,21.85-.95,4.97-2.23,9.86-4.97,14.19-3.53,5.59-8.55,8.69-15.27,8.43-4.41-.17-7.88-2.12-9.9-6.23-.89-1.82-1.1-3.74-.94-5.73,.47-5.52,1.09-11.02,1.35-16.54,.34-7.2,.43-14.4,.56-21.6,.05-3.06,.69-5.94,2.3-8.59,1.71-2.81,4.19-4.4,7.45-4.57,4.41-.23,8.72,.39,12.83,2.02,3.52,1.39,5.88,3.97,7.25,7.47v-.02Zm-10.09,2.56c-.92-2.39-2.49-3.33-4.87-3.08-1.28,.13-1.72,.56-1.78,1.82-.1,2-.22,3.99-.28,5.98-.28,10.59-.52,21.18-2.39,31.66-.09,.49-.15,.99-.14,1.49,.02,1.14,.65,2.03,1.49,2.24,1.06,.26,2.3-.18,2.75-1.19,.66-1.5,1.34-3.03,1.64-4.61,.69-3.57,1.22-7.18,1.71-10.79,.84-6.15,1.6-12.31,2.35-18.47,.22-1.78,.15-3.57-.49-5.05h0Z"/>
  <path d="M186.72,46.74c-1.07,3.44-1.86,6.98-3.24,10.29-3.07,7.39-11.26,10.89-19.62,6.92-4.18-1.99-6.95-7.52-5.93-12.42,2.23-10.69,2.04-21.46,1.63-32.27-.07-1.73-.1-3.47-.09-5.2,.01-2.12,.99-2.89,3.06-2.49,2.01,.4,4.03,.82,6.03,1.29,1.77,.41,2.32,.92,2.37,2.83,.14,5.6,.55,11.23,.11,16.78-.49,6.02-1.84,11.97-2.76,17.95-.2,1.3-.28,2.63-.27,3.93,.02,.99,.42,1.91,1.57,2.13,1.21,.24,2.21-.33,2.53-1.38,.68-2.25,1.25-4.56,1.61-6.89,1.26-8.16,2.4-16.33,3.59-24.49,.36-2.48,.71-4.97,1.06-7.45,.22-1.57,.49-1.75,2.08-1.42,2.86,.61,5.73,1.19,8.58,1.83,1.83,.41,2.2,.95,2.05,2.77-.78,9.19-2.35,18.26-4.34,27.28v.02Z"/>
  <path d="M217.87,36.91c-2.37-.59-4.57-.94-6.61-1.7-1.43-.54-2.73-1.51-3.94-2.49-.85-.68-.83-1.77-.2-2.69,1.34-1.93,3.12-3.12,5.57-2.81,6.23,.76,12.45,1.55,18.67,2.36,3.76,.5,7.52,1.02,11.26,1.64,2.05,.35,3.25,1.76,3.16,3.38-.09,1.61-1.58,3.06-3.47,3.36-.36,.06-.74,.06-1.12,.06-3.08,0-6.17,.07-9.26-.05-1.75-.07-2.91,.59-3.92,1.93-5.98,7.97-12,15.9-18.02,23.84-.36,.48-.76,.97-1.24,1.31-.96,.66-2.21,1.16-3.11,.31-.62-.6-.96-1.84-.88-2.74,.1-1.12,.64-2.25,1.17-3.27,2.34-4.47,4.76-8.91,7.14-13.36,1.58-2.96,3.15-5.93,4.81-9.08h-.01Z"/>
</svg>