<?xml version="1.0" encoding="utf-8"?>
<!-- Generator: Adobe Illustrator 27.0.1, SVG Export Plug-In . SVG Version: 6.00 Build 0)  -->
<svg version="1.1" xmlns="http://www.w3.org/2000/svg" xmlns:xlink="http://www.w3.org/1999/xlink" x="0px" y="0px"
	 viewBox="0 0 25.25 30.5" style="enable-background:new 0 0 25.25 30.5;" xml:space="preserve">
<style type="text/css">
	.st0{display:none;}
	.st1{display:inline;}
	.st2{clip-path:url(#SVGID_00000025427794529775688770000001322140791778574266_);}
	.st3{clip-path:url(#SVGID_00000066480050907056369030000013472233321858957737_);}
	
		.st4{clip-path:url(#SVGID_00000031903459219269528610000009973697385850127286_);fill:#FFFFFF;stroke:#000000;stroke-miterlimit:10;}
	.st5{clip-path:url(#SVGID_00000036250037444421979460000008482035201395810480_);}
	.st6{clip-path:url(#SVGID_00000145770148550706841660000013456097983767944112_);}
	
		.st7{clip-path:url(#SVGID_00000156571334512279481280000001884145795670856622_);fill:#FFFFFF;stroke:#000000;stroke-miterlimit:10;}
	
		.st8{clip-path:url(#SVGID_00000093169865380167647280000004400968262657881020_);fill:#FFFFFF;stroke:#000000;stroke-miterlimit:10;}
	
		.st9{clip-path:url(#SVGID_00000070839357084926018580000005591848414831207852_);fill:#FFFFFF;stroke:#000000;stroke-miterlimit:10;}
	.st10{fill:#FFFFFF;stroke:#000000;stroke-miterlimit:10;}
	.st11{display:inline;fill:none;stroke:#000000;stroke-width:2;stroke-miterlimit:10;}
	.st12{fill:none;stroke:#000000;stroke-width:2;stroke-linejoin:round;stroke-miterlimit:10;}
	.st13{display:inline;fill:none;stroke:#000000;stroke-width:2;stroke-linejoin:round;stroke-miterlimit:10;}
	.st14{clip-path:url(#SVGID_00000097483134972995888330000011859716694809949868_);}
	
		.st15{clip-path:url(#SVGID_00000026161110696036922240000003478960062005191811_);fill:none;stroke:#000000;stroke-width:2;stroke-miterlimit:10;}
	.st16{clip-path:url(#SVGID_00000036219196053953861700000015470830145630677905_);}
	
		.st17{clip-path:url(#SVGID_00000088822317565198915320000015732693896757560226_);fill:none;stroke:#000000;stroke-width:2;stroke-miterlimit:10;}
	.st18{fill:none;stroke:#000000;stroke-width:2;stroke-miterlimit:10;}
</style>
<g id="Layer_1" class="st0">
	<g class="st1">
		<defs>
			<rect id="SVGID_1_" x="0.54" y="14.57" width="12" height="15.18"/>
		</defs>
		<clipPath id="SVGID_00000168814229591491368680000002137653920292566968_">
			<use xlink:href="#SVGID_1_"  style="overflow:visible;"/>
		</clipPath>
		<g style="clip-path:url(#SVGID_00000168814229591491368680000002137653920292566968_);">
			<defs>
				<rect id="SVGID_00000005967925405284483610000015465531975277125026_" x="0.54" y="14.57" width="15.38" height="15.18"/>
			</defs>
			<clipPath id="SVGID_00000098213881162682703060000006472696270395723933_">
				<use xlink:href="#SVGID_00000005967925405284483610000015465531975277125026_"  style="overflow:visible;"/>
			</clipPath>
			<g style="clip-path:url(#SVGID_00000098213881162682703060000006472696270395723933_);">
				<defs>
					<rect id="SVGID_00000114032352350411404430000013473084248246659467_" x="0.54" y="14.57" width="15.38" height="15.18"/>
				</defs>
				<clipPath id="SVGID_00000034796801886603393670000013199272783229613723_">
					<use xlink:href="#SVGID_00000114032352350411404430000013473084248246659467_"  style="overflow:visible;"/>
				</clipPath>
				
					<path style="clip-path:url(#SVGID_00000034796801886603393670000013199272783229613723_);fill:#FFFFFF;stroke:#000000;stroke-miterlimit:10;" d="
					M3.09,14.82c-2.91,4.4-2.57,10.54,0.89,14.61"/>
				
					<path style="clip-path:url(#SVGID_00000034796801886603393670000013199272783229613723_);fill:#FFFFFF;stroke:#000000;stroke-miterlimit:10;" d="
					M3.36,29.26c2.45-1.12,8.96-0.6,12.55-0.6"/>
			</g>
		</g>
	</g>
	<g class="st1">
		<defs>
			<rect id="SVGID_00000162345736047048407180000009282342082122234038_" x="12.54" y="14.57" width="12" height="15.18"/>
		</defs>
		<clipPath id="SVGID_00000178902242481610757320000015089998610925656497_">
			<use xlink:href="#SVGID_00000162345736047048407180000009282342082122234038_"  style="overflow:visible;"/>
		</clipPath>
		<g style="clip-path:url(#SVGID_00000178902242481610757320000015089998610925656497_);">
			<defs>
				<rect id="SVGID_00000010312803078897203670000005808915288037372328_" x="9.16" y="14.57" width="15.38" height="15.18"/>
			</defs>
			<clipPath id="SVGID_00000044165378120229784780000002791222901589451401_">
				<use xlink:href="#SVGID_00000010312803078897203670000005808915288037372328_"  style="overflow:visible;"/>
			</clipPath>
			<g style="clip-path:url(#SVGID_00000044165378120229784780000002791222901589451401_);">
				<defs>
					<rect id="SVGID_00000181777782586368389690000018382805598118373269_" x="9.16" y="14.57" width="15.38" height="15.18"/>
				</defs>
				<clipPath id="SVGID_00000111912613132639047910000015123012947019554952_">
					<use xlink:href="#SVGID_00000181777782586368389690000018382805598118373269_"  style="overflow:visible;"/>
				</clipPath>
				
					<path style="clip-path:url(#SVGID_00000111912613132639047910000015123012947019554952_);fill:#FFFFFF;stroke:#000000;stroke-miterlimit:10;" d="
					M22,14.82c2.91,4.4,2.57,10.54-0.89,14.61"/>
				
					<path style="clip-path:url(#SVGID_00000111912613132639047910000015123012947019554952_);fill:#FFFFFF;stroke:#000000;stroke-miterlimit:10;" d="
					M21.73,29.26c-2.45-1.12-8.96-0.6-12.55-0.6"/>
			</g>
		</g>
	</g>
</g>
<g id="Layer_3" class="st0">
	<g class="st1">
		<defs>
			<rect id="SVGID_00000025420006110203293460000009577365868751244217_" x="0.54" y="14.34" width="3.96" height="15.41"/>
		</defs>
		<clipPath id="SVGID_00000067951867469311596150000007488074636517189801_">
			<use xlink:href="#SVGID_00000025420006110203293460000009577365868751244217_"  style="overflow:visible;"/>
		</clipPath>
		
			<path style="clip-path:url(#SVGID_00000067951867469311596150000007488074636517189801_);fill:#FFFFFF;stroke:#000000;stroke-miterlimit:10;" d="
			M3.42,14.64c-1.62,2.15-2.47,4.86-2.37,7.55c0.1,2.69,1.16,5.33,3.1,7.2c-0.06-0.06-0.12-0.12-0.18-0.18"/>
	</g>
	<g class="st1">
		<defs>
			<rect id="SVGID_00000008832215999427353650000000527975959066661517_" x="20.58" y="14.34" width="3.96" height="15.41"/>
		</defs>
		<clipPath id="SVGID_00000142883107239097621050000012380579727262843322_">
			<use xlink:href="#SVGID_00000008832215999427353650000000527975959066661517_"  style="overflow:visible;"/>
		</clipPath>
		
			<path style="clip-path:url(#SVGID_00000142883107239097621050000012380579727262843322_);fill:#FFFFFF;stroke:#000000;stroke-miterlimit:10;" d="
			M21.67,14.64c1.62,2.15,2.47,4.86,2.37,7.55s-1.16,5.33-3.1,7.2c0.06-0.06,0.12-0.12,0.18-0.18"/>
	</g>
	<g id="Layer_2" class="st1">
		<path class="st10" d="M3.8,29.22c3.09,0.01,6.17,0.02,9.26,0.03c2.75,0.01,5.5,0.02,8.24,0.03"/>
	</g>
</g>
<g id="Layer_8" class="st0">
	<path class="st11" d="M2.12,14.05c0-4.22,21-3.68,20.89,0"/>
</g>
<g id="Layer_8_copy" class="st0">
	<path class="st11" d="M2.12,14.05c0,5.22,20.89,5.22,20.89,0"/>
</g>
<g id="Layer_8_copy_3" class="st0">
	<path class="st11" d="M2.12,14.05c0,2.61,5.31,1.97,10.53,1.97c5.22,0,10.36,0.64,10.36-1.97"/>
</g>
<g id="Layer_8_copy_2" class="st0">
	<path class="st11" d="M2.12,14.05c0-2.09,5.25-3.86,10.43-3.82c5.29,0.05,10.46,1.95,10.46,3.82"/>
</g>
<g id="Layer_11" class="st0">
</g>
<g id="Layer_12">
	<g id="Layer_13">
		<rect x="10.25" y="10.8" class="st12" width="4.5" height="6.5"/>
	</g>
</g>
<g id="Layer_14" class="st0">
	<path class="st13" d="M11.21,14.82v-0.7c0-0.8,0.65-1.45,1.45-1.45h0c0.8,0,1.45,0.65,1.45,1.45v0.7c0,0.8-0.65,1.45-1.45,1.45h0
		C11.86,16.27,11.21,15.62,11.21,14.82z"/>
	<path class="st13" d="M12.78,13.87c-0.19,0.17-0.16,0.44,0.05,0.59c0.5-0.23,0.28-0.94-0.31-0.97c-0.33-0.02-0.6,0.29-0.45,0.51
		s0.64,0.24,0.82,0.03s-0.06-0.54-0.39-0.54c-0.54,0.23-0.09,1.03,0.5,0.87c0.59-0.16,0.14-1.01-0.42-0.81s0.16,0.99,0.59,0.66
		c0.44-0.34-0.74-0.8-0.84-0.34c-0.1,0.46,1.23,0.2,0.82-0.16c-0.47-0.4-1.52-0.19-1.69,0.34c-0.18,0.52,0.52,1.08,1.23,1.02
		c0.71-0.05,1.24-0.64,1.11-1.17c-0.14-0.53-0.85-0.92-1.57-0.9c-1,0.02-1.83,0.84-1.59,1.57c0.24,0.73,1.48,1.16,2.38,0.83
		c0.9-0.34,1.19-1.34,0.56-1.92c-0.55-0.51-1.8-0.38-2.18,0.21c-0.38,0.59,0.21,1.38,1.06,1.49s1.74-0.45,1.79-1.11
		c0.03-0.51-0.42-1.03-1.07-1.18c-0.65-0.15-1.44,0.1-1.72,0.57c-0.28,0.47,0.02,1.09,0.64,1.3c0.62,0.21,1.46-0.07,1.65-0.56
		c0.19-0.48-0.01-1.03-0.5-1.37c-0.47-0.33-1.39-0.05-1.44,0.44c-0.06,0.48,0.72,0.88,1.31,0.7c0.59-0.19,0.78-0.85,0.37-1.22
		C13.08,12.36,12.22,12.36,12.78,13.87z"/>
</g>
<g id="Side-bottom">
	<g>
		<defs>
			<rect id="SVGID_00000177447473797918434820000009427297128954955194_" x="0.54" y="14.05" width="5.25" height="15.7"/>
		</defs>
		<clipPath id="SVGID_00000181771063719741680030000006677963028241283260_">
			<use xlink:href="#SVGID_00000177447473797918434820000009427297128954955194_"  style="overflow:visible;"/>
		</clipPath>
		<g style="clip-path:url(#SVGID_00000181771063719741680030000006677963028241283260_);">
			<defs>
				<rect id="SVGID_00000044150668365918816570000004257603927545435551_" x="0.54" y="14.05" width="5.25" height="15.7"/>
			</defs>
			<clipPath id="SVGID_00000068637775146740114610000014530579203070062006_">
				<use xlink:href="#SVGID_00000044150668365918816570000004257603927545435551_"  style="overflow:visible;"/>
			</clipPath>
			
				<path style="clip-path:url(#SVGID_00000068637775146740114610000014530579203070062006_);fill:none;stroke:#000000;stroke-width:2;stroke-miterlimit:10;" d="
				M3.13,28.75c-4.24,0,1.51-9.72,1.49-14.7"/>
		</g>
	</g>
	<g>
		<defs>
			<rect id="SVGID_00000078754761055218017570000002717667592270013092_" x="19.29" y="14.05" width="5.25" height="15.7"/>
		</defs>
		<clipPath id="SVGID_00000167391766563199982720000012133176188539239614_">
			<use xlink:href="#SVGID_00000078754761055218017570000002717667592270013092_"  style="overflow:visible;"/>
		</clipPath>
		<g style="clip-path:url(#SVGID_00000167391766563199982720000012133176188539239614_);">
			<defs>
				<rect id="SVGID_00000183208866156754271500000003788451085861648560_" x="19.29" y="14.05" width="5.25" height="15.7"/>
			</defs>
			<clipPath id="SVGID_00000080918418361078418290000004808772995757750941_">
				<use xlink:href="#SVGID_00000183208866156754271500000003788451085861648560_"  style="overflow:visible;"/>
			</clipPath>
			
				<path style="clip-path:url(#SVGID_00000080918418361078418290000004808772995757750941_);fill:none;stroke:#000000;stroke-width:2;stroke-miterlimit:10;" d="
				M21.96,28.75c4.24,0-1.51-9.72-1.49-14.7"/>
		</g>
	</g>
	<g id="Layer_7">
		<path class="st18" d="M7.64,27.63"/>
		<path class="st18" d="M2.9,28.74c6.39-0.35,12.81-0.33,19.2,0.01"/>
	</g>
</g>
<g id="Layer_15">
	<path class="st12" d="M12.55,1.6c-7.74,0-10.53,7.57-9.04,11.07c1.05,2.47,5.03-1.46,9.01-1.38c4.12,0.08,8.25,4.07,9.07,1.38
		C22.74,8.97,20.5,1.6,12.55,1.6z"/>
</g>
</svg>
