
<svg id="Layer_1" data-name="Layer 1" xmlns="http://www.w3.org/2000/svg" xmlns:xlink="http://www.w3.org/1999/xlink" viewBox="0 0 1600 1073">
  <defs>
    <style>
      .cls-1 {
        stroke-width: 6px;
      }

      .cls-1, .cls-2 {
        fill: none;
        opacity: 50%;
        stroke: #1d4598;
        stroke-miterlimit: 10;
      }

      .cls-2 {
        stroke-width: 6px;
      }
    </style>
  </defs>
  <image width="1600" height="1073" xlink:href="https://res.cloudinary.com/whatsfordinner42069/image/upload/v1723516734/landing_page_dmkb4z.jpg"/>
  <a xlink:href="/coulot">
    <polygon id="coulott" class="cls-2" points="512.09 402.56 520.37 387.18 557.63 343.4 607.91 265.32 560 249.94 514.45 303.77 512.09 260 473.64 273.01 458.85 267.69 418.62 402.56 426.91 408.47 474.82 388.95 501.44 408.47 512.09 402.56"/>
  </a>
  <a xlink:href="/top-bot">
    <polygon id="top-bot" class="cls-2" points="468.2 591.65 476.87 616.6 497.49 616.6 501.82 604.12 540.88 630.7 549.56 653.48 540.88 686.03 535.45 722.91 520.85 752.2 508.88 766.3 486.64 761.96 473.62 761.96 468.2 748.95 446.5 786.92 420.46 786.92 395.51 786.92 370.56 772.81 352.12 758.71 352.12 741.35 361.88 709.89 345.61 712.06 333.68 704.47 329.34 689.28 329.34 669.75 338.02 645.89 366.22 624.19 393.34 601.41 468.2 591.65"/>
  </a>
  <a xlink:href="/bra">
    <polygon id="bra" class="cls-2" points="639.74 781.24 672.53 819.5 700.96 814.04 727.2 792.17 735.94 760.47 735.94 717.83 755.62 711.27 755.62 724.39 755.62 775.77 767.65 788.89 778.58 794.36 778.58 850.12 658.32 918.99 645.2 914.62 626.62 873.07 638.64 853.4 635.36 815.13 618.96 794.36 639.74 781.24"/>
  </a>
  <a xlink:href="/pants">
    <path id="pants" class="cls-1" d="M619.42,260.41l78.02-29.39,269.31-84.43,4.27,84.43-168.14,43.82-27.44,11.76,15,8.55,75.84,17.1,79.08,7.48-43.82,100.46-204.12-20.31-119.69-33.13c10.09-11.32,25.24-31.38,34.27-60.18,5.64-18,7.22-34.08,7.41-46.15Z"/>
  </a>
  <a xlink:href="/red-dress">
    <polygon id="dress-red" class="cls-2" points="804 513.17 786.15 500.33 759.37 500.33 725.1 500.33 683.34 490.69 668.34 533.66 620.15 606.31 620.15 645.92 606.23 651.28 606.23 660.91 588.03 669.48 588.03 702.66 598.29 718.72 626.58 718.72 661.92 718.72 665.13 733.71 720.82 718.72 725.1 690.89 721.89 675.9 752.95 649.13 804 513.17"/>
  </a>
  <a xlink:href="/jacket">
    <polygon id="jacklet" class="cls-2" points="877.29 874.02 897.02 836.49 910.17 752.04 902.5 715.55 926.62 646.73 1066.91 669.67 1183.1 428.83 1050.47 401.32 1064.72 365.23 1201.73 256.28 1156.79 218.22 1140.35 236.99 1039.51 291.21 961.69 337.08 901.41 412.15 872.91 424.66 843.31 493.47 830.16 523.18 813.72 535.31 820.3 562.28 813.72 611.81 802 652.99 802 720.76 813.72 806.25 820.3 854.21 838.93 868.81 877.29 874.02"/>
  </a>
  <a xlink:href="/denim-shirt">
    <polygon id="Denim-dress" class="cls-2" points="471.89 428.56 483.56 430.56 487.27 418.86 520.06 402.72 530.57 390.97 538 390.97 543.57 418.86 549.8 428.09 563.98 434.27 583.78 436.75 614.09 432.42 648.12 426.85 695.76 418.86 692.66 436.75 675.96 474.49 663.59 510.99 651.83 515.32 655.54 526.29 596.15 613.1 588.2 613.1 565.84 607.5 554.08 602.55 503.35 559.86 489.74 561.72 470.56 560.48 448.91 567.91 426.64 578.42 416.62 569.14 420.45 563.58 423.55 526.29 439.63 511.61 477.37 444.17 471.89 428.56"/>
  </a>
</svg>