<svg viewBox="0 0 36.26 60.24" xmlns="http://www.w3.org/2000/svg"><path d="m25.28 0h2.62c.17.08.34.19.52.22 3.81.75 6.29 3.08 7.26 6.77.52 1.97.6 4.11.57 6.17-.06 5.14-1.47 9.85-4.97 13.76-.52.58-1.03 1.17-1.57 1.79 1.91 1.56 3.34 3.39 3.43 5.79.25 6.43-1.05 12.48-5.04 17.68-1.86 2.43-4.4 3.88-7.4 4.45-3.12.59-6.25 1.13-9.37 1.73-3.15.6-6.28 1.25-9.43 1.88h-1.9c0-1.2 0-2.4 0-3.6.08-.21.2-.41.24-.63.44-2.56.86-5.12 1.31-7.68 1.36-7.88 2.53-15.78 2.76-23.79.15-5.19.13-10.39.19-15.58.03-2.42.88-3.55 3.22-4.25 1.86-.55 3.73-1.1 5.61-1.6 3.98-1.05 7.96-2.07 11.95-3.11zm-3.22 39.53c-.02-2.85-1.76-4.86-4.28-4.92-2.75-.07-5.53 2.05-6.08 4.78-.6 3.01-1.1 6.03-1.59 9.06-.26 1.61.48 2.33 2.08 2.18 5.09-.49 9.89-5.9 9.86-11.1zm-6.86-20.25s.02 0 .03 0c0 1.68-.01 3.36 0 5.03.02 2.3 1.73 3.42 3.8 2.46 2.04-.95 3.11-2.75 3.58-4.83.41-1.86.59-3.79.71-5.7.16-2.61-1.54-4.85-4.03-5.53-2.05-.56-3.94.68-4.06 2.81-.11 1.91-.02 3.83-.02 5.75z"/></svg>