<?xml version="1.0" encoding="UTF-8"?>
<svg id="Layer_1" data-name="Layer 1" xmlns="http://www.w3.org/2000/svg" viewBox="0 0 49.46 56.76">
  <path d="M4.81,56.76h-1.67c-.31-.7-.85-1.39-.88-2.1-.23-5.61-.29-11.22-.54-16.82-.25-5.68-.64-11.36-1-17.03C.51,17.45,.23,14.09,0,10.73c-.07-.97,.51-1.44,1.43-1.57,1.42-.2,2.67,.14,3.73,1.15,3.33,3.14,6.67,6.27,10,9.4,1.62,1.53,3.2,3.11,4.89,4.56,2.05,1.77,3.8,1.64,5.65-.27,.5-.51,.94-1.08,1.38-1.65,5.04-6.57,10.06-13.15,15.11-19.71,.55-.72,1.2-1.4,1.91-1.95,1.1-.85,2.35-.87,3.61-.29,1.23,.57,1.7,1.62,1.75,2.9,.03,.71-.03,1.43-.07,2.15-.53,7.74-1.12,15.48-1.59,23.22-.44,7.26-1.44,14.4-4.01,21.25-.35,.93-.68,1.88-1.17,2.73-1.13,1.94-3.87,2.8-6.1,2.03-1.68-.59-2.11-1.52-1.83-3.98,.6-5.25,1.22-10.51,1.8-15.77,.16-1.44,.23-2.88,.33-4.32-.47,.22-.72,.51-.94,.81-2.31,3.09-4.55,6.24-6.94,9.27-1.4,1.77-2.95,3.45-4.6,4.99-1.36,1.27-2.78,1.13-4.16-.14-.64-.59-1.21-1.26-1.77-1.94-2.91-3.53-5.8-7.08-8.71-10.61-.33-.4-.78-.7-1.38-1.24-.11,.77-.25,1.23-.23,1.68,.27,6.22-.08,12.41-.92,18.58-.25,1.84-.76,3.57-2.35,4.76Z"/>
</svg>