<svg viewBox="0 0 32.97 35.91" xmlns="http://www.w3.org/2000/svg"><path d="m22.58 9.8c.97 3.83 1.9 7.52 2.82 11.21.87 3.46 1.8 6.91 2.58 10.39.22 1 .19 2.15-.08 3.13-.37 1.37-1.56 1.76-2.71.94-.7-.5-1.32-1.28-1.66-2.07-3.35-7.71-6.66-15.44-9.93-23.18-.58-1.37-1.41-2.16-2.91-2.46-2.56-.51-5.09-1.21-7.63-1.85-.46-.12-.91-.29-1.32-.52-1.31-.75-1.97-2.13-1.66-3.37.3-1.25 1.51-2.13 3.14-2.01 3.16.23 6.32.58 9.47.93 5.36.6 10.72 1.23 16.08 1.86 2.03.24 3.25 1.51 4 3.31.42 1.02.2 2-.78 2.46-1.15.55-2.4 1.04-3.65 1.17-1.84.2-3.72.05-5.76.05z"/></svg>