<?xml version="1.0" encoding="UTF-8"?>
<svg id="Layer_1" data-name="Layer 1" xmlns="http://www.w3.org/2000/svg" viewBox="0 0 30.16 45.61">
  <path d="M30.16,25.28c-.2,3.41-.11,6.86-.67,10.21-1.13,6.85-7.34,11.4-15.22,9.79-4.02-.82-7.54-5.06-7.68-9.38-.29-8.58-2.23-16.83-4.6-25.01C1.34,8.64,.74,6.38,.16,4.1-.34,2.11,.31,1.24,2.37,1.15c1.72-.08,3.43-.14,5.15-.16,1.72-.02,2.2,.29,2.76,1.88,1.77,5.08,3.22,10.26,3.85,15.59,.57,4.85,.75,9.74,1.14,14.61,.09,1.1,.31,2.2,.59,3.27,.22,.8,.74,1.44,1.71,1.39,1.03-.05,1.67-.7,1.82-1.61,.19-1.16,.27-2.38,.17-3.55-.81-8.87-1.68-17.73-2.53-26.59-.14-1.46-.27-2.93-.44-4.39-.11-.91,.24-1.34,1.17-1.36C20.48,.17,23.2,.05,25.91,0c1.55-.03,1.97,.35,2.22,1.88,1.22,7.75,1.8,15.55,2.03,23.4Z"/>
</svg>