<?xml version="1.0" encoding="UTF-8"?>
<svg id="Layer_1" data-name="Layer 1" xmlns="http://www.w3.org/2000/svg" viewBox="0 0 51.76 67.47">
  <path d="M30.98,0C31.46,0,31.93,0,32.41,0c.52,.13,1.05,.24,1.57,.39,5.31,1.61,9.96,4.35,13.89,8.25,1.91,1.9,3.06,4.24,3.63,6.87,.06,.26,.17,.5,.26,.75v5.5c-.1,.41-.19,.83-.31,1.24-.45,1.56-.72,3.21-1.4,4.65-2.59,5.46-5.25,10.89-8.01,16.26-3.33,6.48-7.27,12.54-12.65,17.53-5.21,4.83-11.28,7.13-18.39,5.48-4.97-1.15-8.77-3.89-10.46-8.95-1.23-3.71-.2-7.08,1.53-10.42,5.69-11.02,11.52-21.97,15.94-33.6,.32-.85,.69-1.69,1.01-2.55C21.19,5.71,24.58,1.28,30.98,0Zm9.63,17.3c-.11-.04-.22-.08-.32-.12,.09-2.58-1.16-4.27-3.69-5.01-1.38-.4-1.97-.15-2.58,1.15-.93,1.98-1.86,3.96-2.76,5.95-4.36,9.63-8.27,19.47-13.9,28.47-.86,1.38-1.66,2.81-2.43,4.24-.72,1.33-.54,2.73,.34,3.39,1.08,.81,2.55,.78,3.59-.3,1.31-1.36,2.64-2.77,3.67-4.35,2.08-3.2,4.02-6.49,5.92-9.81,3.46-6.04,6.91-12.08,10.22-18.19,.91-1.67,1.32-3.61,1.96-5.43Z"/>
</svg>