<?xml version="1.0" encoding="UTF-8"?>
<svg id="Layer_1" data-name="Layer 1" xmlns="http://www.w3.org/2000/svg" viewBox="0 0 43.2 64.32">
  <path d="M30.72,0c.72,0,1.44,0,2.16,0,.3,.08,.6,.18,.9,.24,4.39,.89,7.36,3.39,8.7,7.71,.29,.93,.48,1.9,.72,2.85v4.08c-.14,.57-.28,1.14-.42,1.71-1.38,5.83-2.82,11.64-4.14,17.48-2.12,9.43-5.58,18.31-10.6,26.58-.96,1.58-2.14,2.86-3.8,3.67h-1.92c-1.63-1.01-2.06-2.05-1.47-3.94,.89-2.81,1.87-5.59,2.79-8.4,.98-2.99,2.07-5.96,2.84-9,.67-2.65-.68-4.6-3.29-5.39-2.55-.77-4.27-.19-5.52,2.19-2.05,3.88-3.94,7.84-5.94,11.74-1.77,3.47-3.27,7.1-5.86,10.12-2.02,2.35-4.27,2.23-5.87-.43,0-.56,0-1.12,0-1.68,.59-1.76,1.12-3.55,1.79-5.28,1.98-5.11,3.74-10.29,4.69-15.69,1.71-9.71,3.36-19.44,5.02-29.16,.49-2.9,2.1-4.91,4.81-5.92,1.52-.57,3.14-.92,4.73-1.29,3.22-.75,6.45-1.45,9.67-2.17Zm-2.59,18.36s-.06,0-.09,0c0-.2,.03-.4,0-.6-.33-1.91-.49-3.88-1.07-5.71-.44-1.38-1.76-1.48-2.91-.52-.21,.18-.42,.37-.6,.59-2.94,3.67-4.06,8-4.5,12.55-.13,1.36,.85,2.5,2.1,2.89,2.63,.83,6.09-1.22,6.53-3.95,.28-1.73,.37-3.49,.55-5.24Z"/>
</svg>